<mxfile host="app.diagrams.net" modified="2022-11-01T16:58:41.609Z" agent="5.0 (Windows NT 10.0; Win64; x64) AppleWebKit/537.36 (KHTML, like Gecko) Chrome/106.0.0.0 Safari/537.36" etag="HaAd6w9hp_Sr5fZi8pEf" version="20.5.1" type="github">
  <diagram id="JupD6d_cFQYnAIwgwPCF" name="PÃ¡gina-1">
    <mxGraphModel dx="1022" dy="471" grid="1" gridSize="10" guides="1" tooltips="1" connect="1" arrows="1" fold="1" page="1" pageScale="1" pageWidth="827" pageHeight="1169" math="0" shadow="0">
      <root>
        <mxCell id="0" />
        <mxCell id="1" parent="0" />
        <mxCell id="k76Weaikr_tCxab333X0-33" style="edgeStyle=orthogonalEdgeStyle;rounded=0;orthogonalLoop=1;jettySize=auto;html=1;exitX=0.25;exitY=1;exitDx=0;exitDy=0;entryX=1;entryY=0.5;entryDx=0;entryDy=0;" edge="1" parent="1" source="k76Weaikr_tCxab333X0-3" target="k76Weaikr_tCxab333X0-31">
          <mxGeometry relative="1" as="geometry" />
        </mxCell>
        <mxCell id="k76Weaikr_tCxab333X0-40" style="edgeStyle=orthogonalEdgeStyle;rounded=0;orthogonalLoop=1;jettySize=auto;html=1;exitX=0.5;exitY=1;exitDx=0;exitDy=0;entryX=0.5;entryY=0;entryDx=0;entryDy=0;" edge="1" parent="1" source="k76Weaikr_tCxab333X0-3" target="k76Weaikr_tCxab333X0-37">
          <mxGeometry relative="1" as="geometry" />
        </mxCell>
        <mxCell id="k76Weaikr_tCxab333X0-42" style="edgeStyle=orthogonalEdgeStyle;rounded=0;orthogonalLoop=1;jettySize=auto;html=1;exitX=0.75;exitY=1;exitDx=0;exitDy=0;entryX=0.5;entryY=0;entryDx=0;entryDy=0;" edge="1" parent="1" source="k76Weaikr_tCxab333X0-3" target="k76Weaikr_tCxab333X0-38">
          <mxGeometry relative="1" as="geometry" />
        </mxCell>
        <mxCell id="k76Weaikr_tCxab333X0-3" value="PROVEDOR" style="rounded=0;whiteSpace=wrap;html=1;" vertex="1" parent="1">
          <mxGeometry x="330" y="250" width="100" height="30" as="geometry" />
        </mxCell>
        <mxCell id="k76Weaikr_tCxab333X0-7" style="edgeStyle=orthogonalEdgeStyle;rounded=0;orthogonalLoop=1;jettySize=auto;html=1;exitX=0.25;exitY=0;exitDx=0;exitDy=0;entryX=0.5;entryY=1;entryDx=0;entryDy=0;" edge="1" parent="1" source="k76Weaikr_tCxab333X0-4" target="k76Weaikr_tCxab333X0-6">
          <mxGeometry relative="1" as="geometry" />
        </mxCell>
        <mxCell id="k76Weaikr_tCxab333X0-14" style="edgeStyle=orthogonalEdgeStyle;rounded=0;orthogonalLoop=1;jettySize=auto;html=1;exitX=0.5;exitY=0;exitDx=0;exitDy=0;entryX=0.5;entryY=1;entryDx=0;entryDy=0;" edge="1" parent="1" source="k76Weaikr_tCxab333X0-4" target="k76Weaikr_tCxab333X0-10">
          <mxGeometry relative="1" as="geometry" />
        </mxCell>
        <mxCell id="k76Weaikr_tCxab333X0-15" style="edgeStyle=orthogonalEdgeStyle;rounded=0;orthogonalLoop=1;jettySize=auto;html=1;exitX=0.75;exitY=0;exitDx=0;exitDy=0;entryX=0;entryY=0.5;entryDx=0;entryDy=0;" edge="1" parent="1" source="k76Weaikr_tCxab333X0-4" target="k76Weaikr_tCxab333X0-11">
          <mxGeometry relative="1" as="geometry" />
        </mxCell>
        <mxCell id="k76Weaikr_tCxab333X0-17" style="edgeStyle=orthogonalEdgeStyle;rounded=0;orthogonalLoop=1;jettySize=auto;html=1;exitX=0.5;exitY=1;exitDx=0;exitDy=0;entryX=0.5;entryY=0;entryDx=0;entryDy=0;" edge="1" parent="1" source="k76Weaikr_tCxab333X0-4" target="k76Weaikr_tCxab333X0-12">
          <mxGeometry relative="1" as="geometry" />
        </mxCell>
        <mxCell id="k76Weaikr_tCxab333X0-48" style="edgeStyle=orthogonalEdgeStyle;rounded=0;orthogonalLoop=1;jettySize=auto;html=1;exitX=1;exitY=0.5;exitDx=0;exitDy=0;entryX=0;entryY=0.5;entryDx=0;entryDy=0;" edge="1" parent="1" source="k76Weaikr_tCxab333X0-4" target="k76Weaikr_tCxab333X0-44">
          <mxGeometry relative="1" as="geometry" />
        </mxCell>
        <mxCell id="k76Weaikr_tCxab333X0-4" value="CLIENTES" style="rounded=0;whiteSpace=wrap;html=1;" vertex="1" parent="1">
          <mxGeometry x="90" y="80" width="100" height="30" as="geometry" />
        </mxCell>
        <mxCell id="k76Weaikr_tCxab333X0-25" style="edgeStyle=orthogonalEdgeStyle;rounded=0;orthogonalLoop=1;jettySize=auto;html=1;exitX=0.5;exitY=0;exitDx=0;exitDy=0;entryX=0.5;entryY=1;entryDx=0;entryDy=0;" edge="1" parent="1" source="k76Weaikr_tCxab333X0-5" target="k76Weaikr_tCxab333X0-24">
          <mxGeometry relative="1" as="geometry" />
        </mxCell>
        <mxCell id="k76Weaikr_tCxab333X0-27" style="edgeStyle=orthogonalEdgeStyle;rounded=0;orthogonalLoop=1;jettySize=auto;html=1;exitX=0.75;exitY=0;exitDx=0;exitDy=0;entryX=0.5;entryY=1;entryDx=0;entryDy=0;" edge="1" parent="1" source="k76Weaikr_tCxab333X0-5" target="k76Weaikr_tCxab333X0-26">
          <mxGeometry relative="1" as="geometry" />
        </mxCell>
        <mxCell id="k76Weaikr_tCxab333X0-46" style="edgeStyle=orthogonalEdgeStyle;rounded=0;orthogonalLoop=1;jettySize=auto;html=1;entryX=0.5;entryY=0;entryDx=0;entryDy=0;" edge="1" parent="1" source="k76Weaikr_tCxab333X0-5" target="k76Weaikr_tCxab333X0-45">
          <mxGeometry relative="1" as="geometry" />
        </mxCell>
        <mxCell id="k76Weaikr_tCxab333X0-54" style="edgeStyle=orthogonalEdgeStyle;rounded=0;orthogonalLoop=1;jettySize=auto;html=1;exitX=1;exitY=0.5;exitDx=0;exitDy=0;entryX=0;entryY=0.5;entryDx=0;entryDy=0;" edge="1" parent="1" source="k76Weaikr_tCxab333X0-5" target="k76Weaikr_tCxab333X0-53">
          <mxGeometry relative="1" as="geometry" />
        </mxCell>
        <mxCell id="k76Weaikr_tCxab333X0-5" value="PRODUCTO" style="rounded=0;whiteSpace=wrap;html=1;" vertex="1" parent="1">
          <mxGeometry x="400" y="90" width="100" height="30" as="geometry" />
        </mxCell>
        <mxCell id="k76Weaikr_tCxab333X0-6" value="" style="ellipse;whiteSpace=wrap;html=1;fillColor=#000000;" vertex="1" parent="1">
          <mxGeometry x="40" y="40" width="20" height="10" as="geometry" />
        </mxCell>
        <mxCell id="k76Weaikr_tCxab333X0-9" value="&lt;u&gt;identificacion&lt;/u&gt;" style="text;html=1;align=center;verticalAlign=middle;resizable=0;points=[];autosize=1;strokeColor=none;fillColor=none;" vertex="1" parent="1">
          <mxGeometry x="5" y="10" width="90" height="30" as="geometry" />
        </mxCell>
        <mxCell id="k76Weaikr_tCxab333X0-10" value="" style="ellipse;whiteSpace=wrap;html=1;fillColor=#FAFEFF;" vertex="1" parent="1">
          <mxGeometry x="140" y="40" width="20" height="10" as="geometry" />
        </mxCell>
        <mxCell id="k76Weaikr_tCxab333X0-11" value="" style="ellipse;whiteSpace=wrap;html=1;fillColor=#FAFEFF;" vertex="1" parent="1">
          <mxGeometry x="200" y="50" width="20" height="10" as="geometry" />
        </mxCell>
        <mxCell id="k76Weaikr_tCxab333X0-12" value="" style="ellipse;whiteSpace=wrap;html=1;fillColor=#FAFEFF;" vertex="1" parent="1">
          <mxGeometry x="120" y="130" width="20" height="10" as="geometry" />
        </mxCell>
        <mxCell id="k76Weaikr_tCxab333X0-19" value="fecha_nac_clie" style="text;html=1;align=center;verticalAlign=middle;resizable=0;points=[];autosize=1;strokeColor=none;fillColor=none;" vertex="1" parent="1">
          <mxGeometry x="80" y="130" width="100" height="30" as="geometry" />
        </mxCell>
        <mxCell id="k76Weaikr_tCxab333X0-20" value="nombre_client" style="text;html=1;align=center;verticalAlign=middle;resizable=0;points=[];autosize=1;strokeColor=none;fillColor=none;" vertex="1" parent="1">
          <mxGeometry x="105" y="10" width="100" height="30" as="geometry" />
        </mxCell>
        <mxCell id="k76Weaikr_tCxab333X0-21" value="direccion_client" style="text;html=1;align=center;verticalAlign=middle;resizable=0;points=[];autosize=1;strokeColor=none;fillColor=none;" vertex="1" parent="1">
          <mxGeometry x="180" y="30" width="110" height="30" as="geometry" />
        </mxCell>
        <mxCell id="k76Weaikr_tCxab333X0-24" value="" style="ellipse;whiteSpace=wrap;html=1;fillColor=#000000;" vertex="1" parent="1">
          <mxGeometry x="400" y="40" width="20" height="10" as="geometry" />
        </mxCell>
        <mxCell id="k76Weaikr_tCxab333X0-26" value="" style="ellipse;whiteSpace=wrap;html=1;fillColor=#FAFEFF;" vertex="1" parent="1">
          <mxGeometry x="480" y="60" width="20" height="10" as="geometry" />
        </mxCell>
        <mxCell id="k76Weaikr_tCxab333X0-28" value="nombre_product" style="text;html=1;align=center;verticalAlign=middle;resizable=0;points=[];autosize=1;strokeColor=none;fillColor=none;" vertex="1" parent="1">
          <mxGeometry x="435" y="30" width="110" height="30" as="geometry" />
        </mxCell>
        <mxCell id="k76Weaikr_tCxab333X0-29" value="&lt;u&gt;codigo&lt;/u&gt;" style="text;html=1;align=center;verticalAlign=middle;resizable=0;points=[];autosize=1;strokeColor=none;fillColor=none;" vertex="1" parent="1">
          <mxGeometry x="380" y="10" width="60" height="30" as="geometry" />
        </mxCell>
        <mxCell id="k76Weaikr_tCxab333X0-31" value="" style="ellipse;whiteSpace=wrap;html=1;fillColor=#000000;" vertex="1" parent="1">
          <mxGeometry x="290" y="320" width="20" height="10" as="geometry" />
        </mxCell>
        <mxCell id="k76Weaikr_tCxab333X0-34" value="&lt;u&gt;nit&lt;/u&gt;" style="text;html=1;align=center;verticalAlign=middle;resizable=0;points=[];autosize=1;strokeColor=none;fillColor=none;" vertex="1" parent="1">
          <mxGeometry x="280" y="320" width="40" height="30" as="geometry" />
        </mxCell>
        <mxCell id="k76Weaikr_tCxab333X0-35" value="direc_prov" style="text;html=1;align=center;verticalAlign=middle;resizable=0;points=[];autosize=1;strokeColor=none;fillColor=none;" vertex="1" parent="1">
          <mxGeometry x="350" y="350" width="80" height="30" as="geometry" />
        </mxCell>
        <mxCell id="k76Weaikr_tCxab333X0-37" value="" style="ellipse;whiteSpace=wrap;html=1;fillColor=#FAFEFF;" vertex="1" parent="1">
          <mxGeometry x="380" y="350" width="20" height="10" as="geometry" />
        </mxCell>
        <mxCell id="k76Weaikr_tCxab333X0-38" value="" style="ellipse;whiteSpace=wrap;html=1;fillColor=#FAFEFF;" vertex="1" parent="1">
          <mxGeometry x="440" y="330" width="20" height="10" as="geometry" />
        </mxCell>
        <mxCell id="k76Weaikr_tCxab333X0-39" style="edgeStyle=orthogonalEdgeStyle;rounded=0;orthogonalLoop=1;jettySize=auto;html=1;exitX=0.5;exitY=1;exitDx=0;exitDy=0;" edge="1" parent="1" source="k76Weaikr_tCxab333X0-3" target="k76Weaikr_tCxab333X0-3">
          <mxGeometry relative="1" as="geometry" />
        </mxCell>
        <mxCell id="k76Weaikr_tCxab333X0-43" value="nombre_prov" style="text;html=1;align=center;verticalAlign=middle;resizable=0;points=[];autosize=1;strokeColor=none;fillColor=none;" vertex="1" parent="1">
          <mxGeometry x="405" y="340" width="90" height="30" as="geometry" />
        </mxCell>
        <mxCell id="k76Weaikr_tCxab333X0-49" style="edgeStyle=orthogonalEdgeStyle;rounded=0;orthogonalLoop=1;jettySize=auto;html=1;exitX=1;exitY=0.5;exitDx=0;exitDy=0;entryX=0;entryY=0.5;entryDx=0;entryDy=0;" edge="1" parent="1" source="k76Weaikr_tCxab333X0-44" target="k76Weaikr_tCxab333X0-5">
          <mxGeometry relative="1" as="geometry" />
        </mxCell>
        <mxCell id="k76Weaikr_tCxab333X0-44" value="adquiere" style="rhombus;whiteSpace=wrap;html=1;strokeColor=#0A0A0A;fillColor=#FAFEFF;" vertex="1" parent="1">
          <mxGeometry x="260" y="120" width="50" height="40" as="geometry" />
        </mxCell>
        <mxCell id="k76Weaikr_tCxab333X0-47" style="edgeStyle=orthogonalEdgeStyle;rounded=0;orthogonalLoop=1;jettySize=auto;html=1;exitX=0.5;exitY=1;exitDx=0;exitDy=0;entryX=0.5;entryY=0;entryDx=0;entryDy=0;" edge="1" parent="1" source="k76Weaikr_tCxab333X0-45" target="k76Weaikr_tCxab333X0-3">
          <mxGeometry relative="1" as="geometry" />
        </mxCell>
        <mxCell id="k76Weaikr_tCxab333X0-45" value="suministra" style="rhombus;whiteSpace=wrap;html=1;strokeColor=#0A0A0A;fillColor=#FAFEFF;" vertex="1" parent="1">
          <mxGeometry x="400" y="170" width="70" height="40" as="geometry" />
        </mxCell>
        <mxCell id="k76Weaikr_tCxab333X0-50" value="(1,N)" style="text;html=1;align=center;verticalAlign=middle;resizable=0;points=[];autosize=1;strokeColor=none;fillColor=none;" vertex="1" parent="1">
          <mxGeometry x="185" y="70" width="50" height="30" as="geometry" />
        </mxCell>
        <mxCell id="k76Weaikr_tCxab333X0-51" value="(1,N)" style="text;html=1;align=center;verticalAlign=middle;resizable=0;points=[];autosize=1;strokeColor=none;fillColor=none;" vertex="1" parent="1">
          <mxGeometry x="340" y="80" width="50" height="30" as="geometry" />
        </mxCell>
        <mxCell id="k76Weaikr_tCxab333X0-52" value="N:M" style="text;html=1;align=center;verticalAlign=middle;resizable=0;points=[];autosize=1;strokeColor=none;fillColor=none;" vertex="1" parent="1">
          <mxGeometry x="260" y="100" width="50" height="30" as="geometry" />
        </mxCell>
        <mxCell id="k76Weaikr_tCxab333X0-53" value="" style="ellipse;whiteSpace=wrap;html=1;fillColor=#FAFEFF;" vertex="1" parent="1">
          <mxGeometry x="540" y="100" width="20" height="10" as="geometry" />
        </mxCell>
        <mxCell id="k76Weaikr_tCxab333X0-55" value="precio_unitrario" style="text;html=1;align=center;verticalAlign=middle;resizable=0;points=[];autosize=1;strokeColor=none;fillColor=none;" vertex="1" parent="1">
          <mxGeometry x="500" y="100" width="110" height="30" as="geometry" />
        </mxCell>
        <mxCell id="k76Weaikr_tCxab333X0-56" value="(1,1)" style="text;html=1;align=center;verticalAlign=middle;resizable=0;points=[];autosize=1;strokeColor=none;fillColor=none;" vertex="1" parent="1">
          <mxGeometry x="445" y="120" width="50" height="30" as="geometry" />
        </mxCell>
        <mxCell id="k76Weaikr_tCxab333X0-57" value="(1,N)" style="text;html=1;align=center;verticalAlign=middle;resizable=0;points=[];autosize=1;strokeColor=none;fillColor=none;" vertex="1" parent="1">
          <mxGeometry x="380" y="230" width="50" height="30" as="geometry" />
        </mxCell>
        <mxCell id="k76Weaikr_tCxab333X0-58" value="1:N" style="text;html=1;align=center;verticalAlign=middle;resizable=0;points=[];autosize=1;strokeColor=none;fillColor=none;" vertex="1" parent="1">
          <mxGeometry x="460" y="175" width="40" height="30" as="geometry" />
        </mxCell>
      </root>
    </mxGraphModel>
  </diagram>
</mxfile>
